# xmcd
#
# Track frame offsets: 
#        150
#        13070
#        26192
#        44575
#        55877
#        70922
#        83467
#        97170
#        108872
#        122345
#        135857
#
# Disc length: 1970 seconds
#
# Revision: 7
# Processed by: cddbd v1.5.2PL0 Copyright (c) Steve Scherf et al.
# Submitted via: ExactAudioCopy v0.95b4
#
DISCID=8907b00b
DTITLE=Trailer Bride - Whine de Lune
DYEAR=1999
DGENRE=Country
TTITLE0=Work on the Railroad
TTITLE1=Too Many Snakes
TTITLE2=Crazy Love
TTITLE3=Felt Like a Sin
TTITLE4=Clermont Hotel
TTITLE5=A Song For Emily
TTITLE6=Left-hand Cigarette Blues
TTITLE7=Dirt Nap
TTITLE8=Sapphire Jewel
TTITLE9=whine de lune
TTITLE10=Pasture
EXTD=YEAR: 1999
EXTT0=
EXTT1=
EXTT2=
EXTT3=
EXTT4=
EXTT5=
EXTT6=
EXTT7=
EXTT8=
EXTT9=
EXTT10=
PLAYORDER=
